<mxfile host="app.diagrams.net" modified="2022-07-10T17:37:25.827Z" agent="5.0 (Macintosh)" etag="O2HCwBhuOuSsl65ggKl3" version="20.0.4" type="github">
  <diagram name="Page-1" id="8ce9d11a-91a2-4d17-14d8-a56ed91bf033">
    <mxGraphModel dx="1113" dy="726" grid="1" gridSize="10" guides="1" tooltips="1" connect="1" arrows="1" fold="1" page="1" pageScale="1" pageWidth="4681" pageHeight="3300" background="none" math="0" shadow="0">
      <root>
        <mxCell id="0" />
        <mxCell id="1" parent="0" />
        <mxCell id="c2DMqhgIIYY3RgrECyt5-4" value="" style="edgeStyle=orthogonalEdgeStyle;rounded=0;orthogonalLoop=1;jettySize=auto;html=1;" edge="1" parent="1" source="c2DMqhgIIYY3RgrECyt5-1" target="c2DMqhgIIYY3RgrECyt5-3">
          <mxGeometry relative="1" as="geometry" />
        </mxCell>
        <mxCell id="c2DMqhgIIYY3RgrECyt5-1" value="./minisehll" style="html=1;dashed=0;whitespace=wrap;shape=mxgraph.dfd.start" vertex="1" parent="1">
          <mxGeometry x="250" y="250" width="80" height="30" as="geometry" />
        </mxCell>
        <mxCell id="c2DMqhgIIYY3RgrECyt5-6" value="" style="edgeStyle=orthogonalEdgeStyle;rounded=0;orthogonalLoop=1;jettySize=auto;html=1;entryX=0;entryY=0.5;entryDx=0;entryDy=0;" edge="1" parent="1" source="c2DMqhgIIYY3RgrECyt5-3" target="c2DMqhgIIYY3RgrECyt5-7">
          <mxGeometry relative="1" as="geometry">
            <mxPoint x="590" y="265" as="targetPoint" />
          </mxGeometry>
        </mxCell>
        <mxCell id="c2DMqhgIIYY3RgrECyt5-3" value="&lt;div&gt;readline&lt;/div&gt;&lt;div&gt;prompt 1&lt;/div&gt;&lt;div&gt;(normal)&lt;br&gt;&lt;/div&gt;" style="whiteSpace=wrap;html=1;dashed=0;" vertex="1" parent="1">
          <mxGeometry x="390" y="235" width="120" height="60" as="geometry" />
        </mxCell>
        <mxCell id="c2DMqhgIIYY3RgrECyt5-10" value="yes" style="edgeStyle=orthogonalEdgeStyle;rounded=0;orthogonalLoop=1;jettySize=auto;html=1;entryX=0.5;entryY=0;entryDx=0;entryDy=0;" edge="1" parent="1" source="c2DMqhgIIYY3RgrECyt5-7" target="c2DMqhgIIYY3RgrECyt5-3">
          <mxGeometry relative="1" as="geometry">
            <mxPoint x="620" y="135" as="targetPoint" />
            <Array as="points">
              <mxPoint x="620" y="200" />
              <mxPoint x="450" y="200" />
            </Array>
          </mxGeometry>
        </mxCell>
        <mxCell id="c2DMqhgIIYY3RgrECyt5-12" value="no" style="edgeStyle=orthogonalEdgeStyle;rounded=0;orthogonalLoop=1;jettySize=auto;html=1;entryX=0;entryY=0.5;entryDx=0;entryDy=0;" edge="1" parent="1" source="c2DMqhgIIYY3RgrECyt5-7" target="c2DMqhgIIYY3RgrECyt5-13">
          <mxGeometry relative="1" as="geometry">
            <mxPoint x="760" y="265" as="targetPoint" />
          </mxGeometry>
        </mxCell>
        <mxCell id="c2DMqhgIIYY3RgrECyt5-7" value="empty line?" style="shape=rhombus;html=1;dashed=0;whitespace=wrap;perimeter=rhombusPerimeter;" vertex="1" parent="1">
          <mxGeometry x="590" y="240" width="60" height="50" as="geometry" />
        </mxCell>
        <mxCell id="c2DMqhgIIYY3RgrECyt5-15" value="yes" style="edgeStyle=orthogonalEdgeStyle;rounded=0;orthogonalLoop=1;jettySize=auto;html=1;entryX=0.5;entryY=1;entryDx=0;entryDy=0;" edge="1" parent="1" source="c2DMqhgIIYY3RgrECyt5-13" target="c2DMqhgIIYY3RgrECyt5-16">
          <mxGeometry relative="1" as="geometry">
            <mxPoint x="765" y="160" as="targetPoint" />
          </mxGeometry>
        </mxCell>
        <mxCell id="c2DMqhgIIYY3RgrECyt5-28" value="" style="edgeStyle=orthogonalEdgeStyle;rounded=0;orthogonalLoop=1;jettySize=auto;html=1;" edge="1" parent="1" source="c2DMqhgIIYY3RgrECyt5-13" target="c2DMqhgIIYY3RgrECyt5-27">
          <mxGeometry relative="1" as="geometry" />
        </mxCell>
        <mxCell id="c2DMqhgIIYY3RgrECyt5-13" value="exit?&lt;br&gt;&lt;div&gt;ft_strcmp &lt;br&gt;&lt;/div&gt;&lt;div&gt;(&quot;exit&quot;, line)&lt;/div&gt;" style="shape=rhombus;html=1;dashed=0;whitespace=wrap;perimeter=rhombusPerimeter;" vertex="1" parent="1">
          <mxGeometry x="720" y="225" width="90" height="80" as="geometry" />
        </mxCell>
        <mxCell id="c2DMqhgIIYY3RgrECyt5-18" value="no" style="edgeStyle=orthogonalEdgeStyle;rounded=0;orthogonalLoop=1;jettySize=auto;html=1;entryX=0.5;entryY=1;entryDx=0;entryDy=0;" edge="1" parent="1" source="c2DMqhgIIYY3RgrECyt5-16" target="c2DMqhgIIYY3RgrECyt5-19">
          <mxGeometry relative="1" as="geometry">
            <mxPoint x="765" y="10.000000000000455" as="targetPoint" />
          </mxGeometry>
        </mxCell>
        <mxCell id="c2DMqhgIIYY3RgrECyt5-23" value="yes" style="edgeStyle=orthogonalEdgeStyle;rounded=0;orthogonalLoop=1;jettySize=auto;html=1;entryX=1;entryY=0.5;entryDx=0;entryDy=0;" edge="1" parent="1" source="c2DMqhgIIYY3RgrECyt5-16" target="c2DMqhgIIYY3RgrECyt5-24">
          <mxGeometry relative="1" as="geometry">
            <mxPoint x="640" y="150" as="targetPoint" />
          </mxGeometry>
        </mxCell>
        <mxCell id="c2DMqhgIIYY3RgrECyt5-16" value="&lt;div&gt;es una&lt;/div&gt;&lt;div&gt;sub-minishell?&lt;/div&gt;" style="shape=rhombus;html=1;dashed=0;whitespace=wrap;perimeter=rhombusPerimeter;" vertex="1" parent="1">
          <mxGeometry x="720" y="120" width="90" height="60" as="geometry" />
        </mxCell>
        <mxCell id="c2DMqhgIIYY3RgrECyt5-21" value="" style="edgeStyle=orthogonalEdgeStyle;rounded=0;orthogonalLoop=1;jettySize=auto;html=1;" edge="1" parent="1" source="c2DMqhgIIYY3RgrECyt5-19" target="c2DMqhgIIYY3RgrECyt5-20">
          <mxGeometry relative="1" as="geometry" />
        </mxCell>
        <mxCell id="c2DMqhgIIYY3RgrECyt5-19" value="&lt;div&gt;limpiar memoria&lt;/div&gt;&lt;div&gt;establecer estado_salida&lt;/div&gt;&lt;div&gt;cerrar&lt;br&gt;&lt;/div&gt;" style="html=1;dashed=0;whitespace=wrap;" vertex="1" parent="1">
          <mxGeometry x="715" y="10" width="100" height="50" as="geometry" />
        </mxCell>
        <mxCell id="c2DMqhgIIYY3RgrECyt5-20" value="SALIR" style="html=1;dashed=0;whitespace=wrap;shape=mxgraph.dfd.start" vertex="1" parent="1">
          <mxGeometry x="570" y="20" width="80" height="30" as="geometry" />
        </mxCell>
        <mxCell id="c2DMqhgIIYY3RgrECyt5-26" value="" style="edgeStyle=orthogonalEdgeStyle;rounded=0;orthogonalLoop=1;jettySize=auto;html=1;entryX=0.5;entryY=0;entryDx=0;entryDy=0;" edge="1" parent="1" source="c2DMqhgIIYY3RgrECyt5-24" target="c2DMqhgIIYY3RgrECyt5-3">
          <mxGeometry relative="1" as="geometry">
            <mxPoint x="410" y="150" as="targetPoint" />
          </mxGeometry>
        </mxCell>
        <mxCell id="c2DMqhgIIYY3RgrECyt5-24" value="&lt;div&gt;limpiar memoria&lt;/div&gt;&lt;div&gt;actualizar valor env&lt;/div&gt;" style="html=1;dashed=0;whitespace=wrap;" vertex="1" parent="1">
          <mxGeometry x="540" y="125" width="100" height="50" as="geometry" />
        </mxCell>
        <mxCell id="c2DMqhgIIYY3RgrECyt5-30" value="" style="edgeStyle=orthogonalEdgeStyle;rounded=0;orthogonalLoop=1;jettySize=auto;html=1;" edge="1" parent="1" source="c2DMqhgIIYY3RgrECyt5-27" target="c2DMqhgIIYY3RgrECyt5-29">
          <mxGeometry relative="1" as="geometry" />
        </mxCell>
        <mxCell id="c2DMqhgIIYY3RgrECyt5-27" value="lexer&lt;br&gt;(tokinizer)" style="html=1;dashed=0;whitespace=wrap;" vertex="1" parent="1">
          <mxGeometry x="860" y="240" width="100" height="50" as="geometry" />
        </mxCell>
        <mxCell id="c2DMqhgIIYY3RgrECyt5-32" value="" style="edgeStyle=orthogonalEdgeStyle;rounded=0;orthogonalLoop=1;jettySize=auto;html=1;" edge="1" parent="1" source="c2DMqhgIIYY3RgrECyt5-29" target="c2DMqhgIIYY3RgrECyt5-31">
          <mxGeometry relative="1" as="geometry" />
        </mxCell>
        <mxCell id="c2DMqhgIIYY3RgrECyt5-29" value="parser" style="html=1;dashed=0;whitespace=wrap;" vertex="1" parent="1">
          <mxGeometry x="1030" y="240" width="100" height="50" as="geometry" />
        </mxCell>
        <mxCell id="c2DMqhgIIYY3RgrECyt5-36" value="" style="edgeStyle=orthogonalEdgeStyle;rounded=0;orthogonalLoop=1;jettySize=auto;html=1;" edge="1" parent="1" source="c2DMqhgIIYY3RgrECyt5-31" target="c2DMqhgIIYY3RgrECyt5-35">
          <mxGeometry relative="1" as="geometry" />
        </mxCell>
        <mxCell id="c2DMqhgIIYY3RgrECyt5-31" value="executor" style="whiteSpace=wrap;html=1;dashed=0;" vertex="1" parent="1">
          <mxGeometry x="1200" y="240" width="90" height="50" as="geometry" />
        </mxCell>
        <mxCell id="c2DMqhgIIYY3RgrECyt5-38" value="yes" style="edgeStyle=orthogonalEdgeStyle;rounded=0;orthogonalLoop=1;jettySize=auto;html=1;" edge="1" parent="1" source="c2DMqhgIIYY3RgrECyt5-35" target="c2DMqhgIIYY3RgrECyt5-37">
          <mxGeometry relative="1" as="geometry" />
        </mxCell>
        <mxCell id="c2DMqhgIIYY3RgrECyt5-40" value="&lt;div&gt;no&lt;/div&gt;" style="edgeStyle=orthogonalEdgeStyle;rounded=0;orthogonalLoop=1;jettySize=auto;html=1;" edge="1" parent="1" source="c2DMqhgIIYY3RgrECyt5-35" target="c2DMqhgIIYY3RgrECyt5-39">
          <mxGeometry relative="1" as="geometry" />
        </mxCell>
        <mxCell id="c2DMqhgIIYY3RgrECyt5-35" value="built in?" style="shape=rhombus;html=1;dashed=0;whitespace=wrap;perimeter=rhombusPerimeter;" vertex="1" parent="1">
          <mxGeometry x="1340" y="240" width="60" height="50" as="geometry" />
        </mxCell>
        <mxCell id="c2DMqhgIIYY3RgrECyt5-37" value="" style="whiteSpace=wrap;html=1;dashed=0;" vertex="1" parent="1">
          <mxGeometry x="1310" y="105" width="120" height="60" as="geometry" />
        </mxCell>
        <mxCell id="c2DMqhgIIYY3RgrECyt5-39" value="" style="whiteSpace=wrap;html=1;dashed=0;" vertex="1" parent="1">
          <mxGeometry x="1310" y="365" width="120" height="60" as="geometry" />
        </mxCell>
      </root>
    </mxGraphModel>
  </diagram>
</mxfile>
